Coordinates
version=1
nRows=30
nColumns=34
inDegrees=no

Units are S.I. units (second, meters, Newtons, ...)
If the header above contains a line with 'inDegrees', this indicates whether rotational values are in degrees (yes) or radians (no).

endheader
time	pelvis_tilt	pelvis_list	pelvis_rotation	pelvis_tx	pelvis_ty	pelvis_tz	hip_flexion_r	hip_adduction_r	hip_rotation_r	knee_angle_r	ankle_angle_r	subtalar_angle_r	mtp_angle_r	hip_flexion_l	hip_adduction_l	hip_rotation_l	knee_angle_l	ankle_angle_l	subtalar_angle_l	mtp_angle_l	lumbar_extension	lumbar_bending	lumbar_rotation	arm_flex_r	arm_add_r	arm_rot_r	elbow_flex_r	pro_sup_r	arm_flex_l	arm_add_l	arm_rot_l	elbow_flex_l	pro_sup_l
0	0.186731	-0.0213828	0.124097	-0.233395	1.10765	-0.266694	0.201467	0.0401348	-0.17532	0.0426763	-0.105958	-0.224587	-0.0157295	-0.564438	-0.107367	-0.34092	0.25006	0.00316886	0.357557	-0.0640761	-0.477834	0.00174614	-0.122396	-0.217048	-0.103652	-0.104191	0.65081	2.00983	-0.0450724	-0.217127	-0.0911162	0.698868	1.97205
0.01	0.195434	-0.0302855	0.11898	-0.218193	1.11069	-0.266732	0.196634	0.0466865	-0.186669	0.0721914	-0.119823	-0.21092	-0.015762	-0.570578	-0.118647	-0.335893	0.277263	-0.0326652	0.320668	-0.064012	-0.484496	0.0217643	-0.10404	-0.217968	-0.10864	-0.1093	0.644471	2.00545	-0.0501143	-0.206241	-0.088615	0.692136	1.9748
0.02	0.201842	-0.0380848	0.1136	-0.203323	1.11349	-0.266654	0.193985	0.0520234	-0.195847	0.101624	-0.129907	-0.199428	-0.0157944	-0.571384	-0.128288	-0.328625	0.307806	-0.0709527	0.27966	-0.063948	-0.489466	0.0399643	-0.0879461	-0.217758	-0.113583	-0.114357	0.639242	2.00179	-0.0563785	-0.196061	-0.0867438	0.687471	1.97799
0.03	0.205961	-0.0447683	0.107985	-0.188787	1.11605	-0.266471	0.193471	0.0561645	-0.202796	0.130857	-0.136284	-0.190187	-0.0158268	-0.566848	-0.136316	-0.319174	0.34169	-0.111589	0.234711	-0.0638839	-0.492728	0.0563405	-0.0741192	-0.21644	-0.118462	-0.11938	0.635145	1.99887	-0.063838	-0.186616	-0.0854268	0.684855	1.98157
0.04	0.207821	-0.0503191	0.102229	-0.174582	1.11839	-0.266189	0.194933	0.0591718	-0.207377	0.159567	-0.139189	-0.183409	-0.0158593	-0.556998	-0.142813	-0.307705	0.378875	-0.154223	0.186359	-0.0638198	-0.494269	0.0708914	-0.0625748	-0.214084	-0.123232	-0.124415	0.632235	1.99671	-0.0724119	-0.177993	-0.084429	0.684231	1.98548
0.05	0.207541	-0.0547285	0.0965033	-0.160701	1.12053	-0.265819	0.198039	0.0611625	-0.209454	0.187235	-0.139046	-0.179392	-0.0158917	-0.542001	-0.14792	-0.2945	0.419193	-0.198144	0.13559	-0.0637557	-0.494114	0.0836424	-0.0533277	-0.210824	-0.12782	-0.129525	0.63061	1.99531	-0.0819479	-0.170343	-0.0833119	0.685466	1.98949
0.06	0.205394	-0.0580031	0.0910547	-0.147132	1.1225	-0.265375	0.202245	0.0622879	-0.20904	0.213242	-0.136407	-0.178335	-0.0159242	-0.522278	-0.15181	-0.279881	0.462238	-0.242235	0.0837323	-0.0636916	-0.492402	0.0946648	-0.046371	-0.206868	-0.132146	-0.134773	0.630391	1.99461	-0.0922135	-0.163867	-0.0814512	0.68833	1.99333
0.07	0.201808	-0.0601568	0.086179	-0.133859	1.12434	-0.264879	0.206858	0.0626729	-0.206449	0.237008	-0.131829	-0.180108	-0.0159566	-0.498524	-0.15464	-0.264133	0.507366	-0.285008	0.0322394	-0.0636275	-0.489392	0.10407	-0.0416589	-0.202473	-0.136135	-0.140189	0.631694	1.99438	-0.10289	-0.158779	-0.078117	0.692479	1.99665
0.08	0.197307	-0.0612105	0.0821784	-0.120861	1.12608	-0.264361	0.211138	0.0623788	-0.20231	0.258107	-0.125785	-0.184161	-0.0159891	-0.471637	-0.156524	-0.247478	0.553756	-0.324708	-0.0175005	-0.0635633	-0.48543	0.112001	-0.039084	-0.197917	-0.139738	-0.145762	0.634585	1.99422	-0.113585	-0.155261	-0.0725977	0.697466	1.99914
0.09	0.192444	-0.0612008	0.0793093	-0.108122	1.12779	-0.263849	0.214394	0.0614011	-0.197477	0.276319	-0.118619	-0.189578	-0.0160215	-0.44261	-0.157529	-0.230096	0.600504	-0.359489	-0.0643171	-0.0634991	-0.480908	0.11862	-0.0384548	-0.193461	-0.142939	-0.151437	0.639049	1.99358	-0.123858	-0.153415	-0.0643374	0.702778	2.0006
0.1	0.187705	-0.0601933	0.0777355	-0.0956247	1.1295	-0.263372	0.216063	0.0597031	-0.19287	0.291634	-0.110563	-0.19523	-0.016054	-0.412419	-0.157694	-0.212175	0.646715	-0.387643	-0.107359	-0.0634349	-0.476215	0.124101	-0.0394815	-0.189323	-0.145759	-0.157127	0.644969	1.99181	-0.13327	-0.153231	-0.0530549	0.70789	2.00104
0.11	0.183432	-0.0583109	0.077495	-0.0833428	1.13126	-0.262954	0.215735	0.0572608	-0.189303	0.304201	-0.10178	-0.19997	-0.0160864	-0.381937	-0.157055	-0.193948	0.69157	-0.407868	-0.146137	-0.0633706	-0.471702	0.12862	-0.0417805	-0.185652	-0.148247	-0.162743	0.652134	1.98823	-0.141432	-0.154574	-0.038818	0.712334	2.00069
0.12	0.179903	-0.05572	0.0784751	-0.0712623	1.13308	-0.262605	0.213206	0.0541141	-0.187349	0.314242	-0.0924201	-0.202824	-0.0161188	-0.351844	-0.155668	-0.175729	0.734356	-0.419472	-0.180509	-0.0633062	-0.467615	0.132352	-0.0448948	-0.182526	-0.150468	-0.168216	0.660253	1.9823	-0.148057	-0.157193	-0.0220568	0.715756	1.99998
0.13	0.177266	-0.0526121	0.0804343	-0.0593718	1.13497	-0.262322	0.208443	0.0503871	-0.187266	0.321996	-0.0826635	-0.203137	-0.0161512	-0.322615	-0.153623	-0.157898	0.774483	-0.422507	-0.21063	-0.0632418	-0.464089	0.135457	-0.0483347	-0.179946	-0.152487	-0.173516	0.668996	1.97364	-0.152992	-0.16075	-0.00351366	0.717963	1.99951
0.14	0.175535	-0.0491856	0.083038	-0.0476559	1.13696	-0.262087	0.201561	0.0462789	-0.188988	0.327666	-0.0727353	-0.200644	-0.0161836	-0.294526	-0.151023	-0.140872	0.811483	-0.417756	-0.236867	-0.0631773	-0.461163	0.138057	-0.0516302	-0.177854	-0.154358	-0.178659	0.678031	1.96211	-0.15623	-0.164861	0.0158582	0.718939	1.99991
0.15	0.17461	-0.0456225	0.0859063	-0.0361051	1.13901	-0.261877	0.192787	0.0420377	-0.192173	0.331405	-0.0628979	-0.195482	-0.016216	-0.267674	-0.147982	-0.125052	0.845007	-0.406578	-0.259703	-0.0631127	-0.458784	0.14023	-0.0543797	-0.176144	-0.156116	-0.183705	0.68706	1.94791	-0.157902	-0.16915	0.0350262	0.718832	2.00177
0.16	0.17431	-0.0420681	0.0886648	-0.0247108	1.14113	-0.261666	0.182428	0.0379229	-0.196287	0.333323	-0.0534233	-0.188126	-0.0162484	-0.242017	-0.1446	-0.110781	0.874816	-0.39066	-0.279638	-0.0630481	-0.456838	0.141998	-0.0562884	-0.174681	-0.157768	-0.188742	0.695842	1.93146	-0.158245	-0.173288	0.053014	0.717921	2.00551
0.17	0.174411	-0.0386196	0.0909893	-0.0134669	1.14328	-0.261424	0.170838	0.0341662	-0.20071	0.333513	-0.0445535	-0.179291	-0.0162808	-0.217415	-0.140962	-0.0983034	0.900774	-0.371718	-0.297107	-0.0629833	-0.455172	0.143342	-0.0571893	-0.17332	-0.159305	-0.19386	0.704209	1.91346	-0.157562	-0.177028	0.0690178	0.716569	2.0113
0.18	0.174678	-0.0353239	0.0926384	-0.00237007	1.14544	-0.261125	0.158387	0.0309396	-0.204836	0.332081	-0.0364621	-0.169789	-0.0163131	-0.193668	-0.137123	-0.0877448	0.922842	-0.351235	-0.312429	-0.0629185	-0.45363	0.144209	-0.057046	-0.171919	-0.160706	-0.199133	0.712059	1.89478	-0.156177	-0.180218	0.0824851	0.715168	2.01901
0.19	0.174898	-0.0321854	0.0934732	0.00857892	1.14759	-0.260752	0.145435	0.0283368	-0.208169	0.329174	-0.0292248	-0.160401	-0.0163455	-0.170558	-0.133119	-0.0791099	0.941064	-0.330294	-0.325787	-0.0628537	-0.45207	0.144537	-0.055939	-0.17035	-0.161947	-0.204594	0.719351	1.87637	-0.154393	-0.182803	0.0931489	0.714092	2.02823
0.2	0.174898	-0.0291809	0.0934615	0.0193772	1.14968	-0.260294	0.132305	0.026371	-0.210381	0.324983	-0.0228067	-0.151753	-0.0163778	-0.147869	-0.128969	-0.072293	0.955555	-0.309522	-0.33724	-0.0627887	-0.450385	0.14428	-0.054041	-0.168512	-0.163021	-0.210219	0.726088	1.85914	-0.152462	-0.184804	0.101018	0.713654	2.0383
0.21	0.174557	-0.0262785	0.092671	0.0300186	1.1517	-0.259752	0.119271	0.0249904	-0.21135	0.319741	-0.0170696	-0.144243	-0.0164102	-0.125409	-0.124696	-0.0670989	0.966483	-0.289154	-0.346754	-0.0627237	-0.448506	0.143424	-0.0515852	-0.166334	-0.163938	-0.215918	0.732295	1.84387	-0.150566	-0.186301	0.106329	0.714076	2.04839
0.22	0.173803	-0.0234554	0.0912514	0.0404953	1.15363	-0.259136	0.106538	0.0241072	-0.211147	0.313689	-0.0117996	-0.138021	-0.0164425	-0.103011	-0.120333	-0.0632682	0.974057	-0.269159	-0.354251	-0.0626587	-0.4464	0.142011	-0.0488315	-0.163779	-0.164737	-0.221542	0.738012	1.8311	-0.14881	-0.187399	0.109477	0.715467	2.05764
0.23	0.172611	-0.0207101	0.0894097	0.0508001	1.15545	-0.258463	0.0942363	0.0236306	-0.209996	0.307045	-0.00674617	-0.133015	-0.0164748	-0.0805421	-0.115938	-0.0605037	0.978501	-0.249404	-0.359658	-0.0625935	-0.444061	0.140142	-0.0460355	-0.160844	-0.165477	-0.226901	0.743273	1.82112	-0.147225	-0.188209	0.110931	0.717819	2.06532
0.24	0.17099	-0.0180698	0.0873808	0.0609284	1.15714	-0.257754	0.0824232	0.0234963	-0.208216	0.299966	-0.0016661	-0.128986	-0.0165071	-0.0579013	-0.111597	-0.0584967	0.980046	-0.229786	-0.36294	-0.0625283	-0.441504	0.13797	-0.0434213	-0.15756	-0.166233	-0.231786	0.748108	1.81392	-0.145783	-0.18883	0.111161	0.721015	2.07088
0.25	0.168971	-0.0155933	0.0853976	0.0708784	1.15869	-0.257032	0.0710848	0.0236826	-0.206145	0.292536	0.00363762	-0.125609	-0.0165395	-0.0350247	-0.10741	-0.0569504	0.978912	-0.210313	-0.364124	-0.0624631	-0.438754	0.135683	-0.0411628	-0.153984	-0.167081	-0.23601	0.752539	1.80929	-0.144409	-0.18934	0.110588	0.72485	2.07404
0.26	0.166599	-0.013364	0.0836634	0.0806538	1.1601	-0.256316	0.0601498	0.0242122	-0.20408	0.284759	0.00929012	-0.122545	-0.0165718	-0.0118903	-0.103486	-0.0556036	0.975295	-0.191124	-0.3633	-0.0623978	-0.435842	0.133478	-0.0393714	-0.150192	-0.168088	-0.239429	0.756586	1.80687	-0.143007	-0.189789	0.109551	0.729078	2.07474
0.27	0.163934	-0.0114743	0.0823309	0.0902619	1.16136	-0.255623	0.0495094	0.0251395	-0.20223	0.276582	0.0153357	-0.119496	-0.0166041	0.0114759	-0.0999169	-0.0542499	0.969367	-0.17245	-0.360605	-0.0623324	-0.432805	0.131529	-0.0380926	-0.146273	-0.169298	-0.24197	0.760272	1.80622	-0.141472	-0.190208	0.108303	0.733444	2.07305
0.28	0.161044	-0.0100047	0.0814883	0.0997144	1.16246	-0.254962	0.0390379	0.0265286	-0.200706	0.267931	0.0217457	-0.116235	-0.0166364	0.0349951	-0.0967714	-0.0527534	0.961265	-0.154549	-0.356207	-0.062267	-0.42969	0.129966	-0.0373111	-0.142315	-0.170727	-0.243638	0.763627	1.80688	-0.13971	-0.190608	0.10701	0.737728	2.06913
0.29	0.158009	-0.00900643	0.0811562	0.109025	1.16342	-0.254336	0.0286137	0.0284277	-0.19952	0.258756	0.0284402	-0.11262	-0.0166687	0.0585333	-0.0940779	-0.0510574	0.9511	-0.137631	-0.35028	-0.0622016	-0.426553	0.128857	-0.0369639	-0.138398	-0.17236	-0.244503	0.766687	1.80843	-0.137647	-0.190993	0.10576	0.741768	2.06328
